<?xml version="1.0" encoding="utf-8"?>
<!-- Generator: Adobe Illustrator 27.5.0, SVG Export Plug-In . SVG Version: 6.00 Build 0)  -->
<svg version="1.1" xmlns="http://www.w3.org/2000/svg" xmlns:xlink="http://www.w3.org/1999/xlink" x="0px" y="0px"
	 viewBox="0 0 300 300" style="enable-background:new 0 0 300 300;" xml:space="preserve">

<g id="OBJECTS">
	
	
	
	<g>
		<defs>
			<circle id="SVGID_00000179615168480413046930000014056952923094375335_" cx="145.581" cy="145.581" r="102.044"/>
		</defs>
		<use xlink:href="#SVGID_00000179615168480413046930000014056952923094375335_"  style="overflow:visible;fill:#F6EFE9;"/>
		<clipPath id="SVGID_00000091703457596732954710000007968630562971797888_">
			<use xlink:href="#SVGID_00000179615168480413046930000014056952923094375335_"  style="overflow:visible;"/>
		</clipPath>
		<g style="clip-path:url(#SVGID_00000091703457596732954710000007968630562971797888_);">
			<g>
				<g>
					<path style="fill:#A87059;" d="M198.278,123.104c-0.133-0.519-0.313-1.028-0.518-1.527c-0.195-0.48-0.456-1.062-0.999-1.49
						c-0.531-0.42-1.195-0.57-1.792-0.568c-0.605,0.002-1.182,0.133-1.721,0.351c-0.963,0.388-1.8,0.994-2.528,1.669
						c0.014-0.129,0.027-0.257,0.041-0.386c0.08-0.858,0.139-1.716,0.178-2.575c0.158-3.435-0.01-6.88-0.482-10.292
						c-0.47-3.411-1.313-6.784-2.559-10.015c-1.256-3.225-2.937-6.302-5.052-9.063c-2.121-2.753-4.662-5.188-7.516-7.162
						c-2.869-1.958-6.011-3.449-9.245-4.622c-1.644-0.506-3.27-1.071-4.955-1.4l-1.253-0.287c-0.417-0.098-0.834-0.198-1.26-0.247
						l-2.538-0.374c-0.423-0.056-0.844-0.138-1.269-0.172l-1.276-0.101l-2.55-0.201c-0.44-0.047-0.805-0.028-1.205-0.035
						l-1.184,0.012l-2.43,0.059c0.07,0.062,0.122,0.184,0.119,0.277l-0.406-0.403c-0.164,0.004-0.328,0.005-0.492,0.001
						l-0.405-0.009v0.023c-6.655,0.106-13.353,0.983-19.68,3.197c-3.194,1.2-6.286,2.702-9.114,4.643
						c-2.818,1.951-5.318,4.359-7.413,7.073c-4.203,5.45-6.637,12.103-7.62,18.855c-0.488,3.385-0.676,6.811-0.539,10.229
						c0.053,1.154,0.123,2.297,0.254,3.448c-0.095-0.097-0.187-0.195-0.285-0.29c-0.772-0.748-1.675-1.431-2.725-1.853
						c-0.539-0.217-1.116-0.349-1.721-0.351c-0.597-0.002-1.261,0.148-1.792,0.568c-0.543,0.428-0.804,1.01-0.999,1.49
						c-0.206,0.499-0.385,1.008-0.518,1.527c-0.548,2.083-0.515,4.232-0.279,6.295c0.239,2.073,0.676,4.084,1.119,6.091l0.638,3.017
						c0.217,1.005,0.408,2.013,0.665,3.014c0.5,1.998,1.109,4.017,2.163,5.851c0.527,0.912,1.181,1.766,1.901,2.516
						c0.358,0.38,0.718,0.742,1.082,1.109c0.367,0.366,0.75,0.735,1.187,1.058c0.859,0.64,2.008,1.111,3.203,0.826
						c0.293-0.068,0.591-0.201,0.832-0.354c0.242-0.153,0.459-0.301,0.656-0.416c0.198-0.12,0.373-0.172,0.539-0.19
						c0.167-0.014,0.268,0.046,0.282,0.103l0.117-0.238l1.406,6.695l1.059,4.966c0.378,1.724,1.076,3.375,2.049,4.844
						c0.489,0.733,1.045,1.42,1.659,2.05c0.262,0.274,0.541,0.531,0.827,0.78c-0.005,0.027-0.016,0.053-0.016,0.082
						c0.001,3.114,0.071,6.222,0.129,9.331l0.223,9.325c0.038,1.981,0.071,3.962,0.097,5.942l-1.48,1.902
						c-0.621,0.784-1.241,1.564-1.886,2.324c-0.64,0.764-1.297,1.514-1.959,2.264c-0.665,0.749-1.34,1.492-2.001,2.273l0.421,0.501
						c0.037-0.022,0.073-0.047,0.11-0.069c4.55,3.608,38.062,28.139,75.211-0.073c0.045,0.027,0.088,0.057,0.133,0.084l0.422-0.5
						c-0.654-0.778-1.322-1.517-1.98-2.262c-0.655-0.747-1.306-1.492-1.94-2.251c-0.639-0.755-1.254-1.53-1.87-2.308l-1.592-2.045
						c0.072-2.18,0.193-4.358,0.349-6.534c0.226-3.16,0.558-6.319,0.649-9.493c0.141-3.098,0.32-6.174,1.034-9.153
						c0.047-0.047,0.097-0.092,0.143-0.14c0.615-0.627,1.172-1.312,1.662-2.042c0.975-1.464,1.678-3.111,2.06-4.834l1.074-4.963
						l1.408-6.513c0.047-0.034,0.126-0.058,0.236-0.049c0.166,0.018,0.34,0.07,0.539,0.19c0.197,0.115,0.414,0.264,0.656,0.416
						c0.241,0.153,0.539,0.286,0.832,0.354c1.194,0.285,2.343-0.186,3.203-0.826c0.437-0.323,0.82-0.691,1.187-1.058
						c0.363-0.367,0.724-0.729,1.082-1.109c0.72-0.75,1.375-1.604,1.901-2.516c1.054-1.834,1.663-3.853,2.163-5.851
						c0.258-1,0.448-2.008,0.665-3.014l0.638-3.017c0.442-2.007,0.879-4.018,1.119-6.091
						C198.793,127.336,198.826,125.187,198.278,123.104z"/>
				</g>
				<g>
					<path style="fill:#724B3D;" d="M176.911,170.902c0,0-6.637,40.635-40.168,34.449c0,0-15.518-3.005-20.98-18.814l-1.3-15.096
						c0,0,11.533,9.162,13.354,10.589c1.821,1.426,11.334,8.219,17.187,8.575c0,0,8.997-0.065,21.762-11.652L176.911,170.902z"/>
				</g>
				<g>
					<path style="fill:#724B3D;" d="M94.011,125.989c1.598-0.731,4.123,0.742,5.043,2.208c0.979,1.561,1.21,3.474,1.226,5.316
						c0.017,1.842-0.155,3.698,0.12,5.519c0.363,2.401,1.485,4.625,2.798,6.668c1.313,2.043,2.83,3.951,4.105,6.018
						c-0.973-4.029-1.43-8.139-2.398-12.177c-0.984-4.103-2.144-8.166-2.954-12.31c-0.376-1.923-0.726-3.968-2.013-5.446
						c-0.981-1.126-2.464-1.799-3.958-1.794c-0.349,0.001-0.717,0.044-0.999,0.251c-0.234,0.171-0.38,0.435-0.511,0.694
						c-0.857,1.688-2.03,4.526-1.609,6.454C93.103,126.662,93.512,126.217,94.011,125.989z"/>
				</g>
				<g>
					<path style="fill:#724B3D;" d="M196.571,125.989c-1.598-0.731-4.123,0.742-5.043,2.208c-0.979,1.561-1.21,3.474-1.226,5.316
						c-0.017,1.842,0.155,3.698-0.12,5.519c-0.363,2.401-1.485,4.625-2.798,6.668c-1.313,2.043-2.83,3.951-4.105,6.018
						c0.973-4.029,1.43-8.139,2.398-12.177c0.984-4.103,2.144-8.166,2.954-12.31c0.376-1.923,0.726-3.968,2.013-5.446
						c0.981-1.126,2.464-1.799,3.958-1.794c0.349,0.001,0.717,0.044,0.999,0.251c0.234,0.171,0.38,0.435,0.511,0.694
						c0.857,1.688,2.03,4.526,1.609,6.454C197.479,126.662,197.07,126.217,196.571,125.989z"/>
				</g>
				<g>
					<path style="fill:#724B3D;" d="M139.358,143.254c0,0,0.907-18.049,0.907-18.049l-3.941-9.822l-9.321-2.045
						c0,0-13.016,0.416-13.254,0.535c-0.238,0.119-3.031,3.507-3.031,3.507l4.101-1.605c5.81,0.173,12.497-0.63,17.484,3.045
						c1.635,1.205,2.897,2.827,3.961,4.54c0.54,0.869,1.035,1.767,1.512,2.672c0.364,0.692,0.32,1.199,0.363,1.955
						c0.151,2.698,0.288,5.397,0.42,8.097C138.67,138.367,138.795,140.251,139.358,143.254z"/>
				</g>
				<g>
					<polygon style="fill:#724B3D;" points="144.029,176.327 148.297,174.067 147.594,177.582 144.679,177.812 					"/>
				</g>
				<g>
					<path style="fill:#724B3D;" d="M153.505,157.779c0,0-2.678,0.211-3.433-0.106l-4.085,0.419l-4.085-0.419
						c-0.755,0.317-3.433,0.106-3.433,0.106c4.498,2.865,7.191,2.494,7.518,2.434C146.314,160.273,149.007,160.644,153.505,157.779z
						"/>
				</g>
				<g>
					<polygon style="fill:#724B3D;" points="151.091,123.959 156.334,118.646 163.923,116.715 175.031,116.232 179.377,117.267 
						176.341,113.541 162.336,112.92 154.529,115.571 					"/>
				</g>
			</g>
			<g>
				<g>
					<path style="fill:#AE4136;" d="M247.704,248.993c-0.722-2.845-3.695-14.523-4.477-17.024c-0.892-2.853-7.845-6.24-9.628-6.954
						c-1.783-0.713-25.14-8.202-27.815-8.915c-2.674-0.713-14.799-7.31-14.799-7.31l-0.535-3.388l-5.706-4.279l-1.961,3.566
						c-16.938,9.093-37.621,8.737-37.621,8.737c-24.605,0.357-38.156-8.915-38.156-8.915l-1.961-3.031l-3.388,2.853l-2.14,2.318
						l-0.535,2.674c0,0-10.52,5.349-12.124,6.24c-1.605,0.891-16.225,6.419-24.249,8.023c-8.023,1.605-12.124,6.062-13.729,8.023
						c-1.415,1.73-5.048,14.409-5.886,17.38H247.704z"/>
				</g>
				<g>
					<g>
						<path style="fill:#892D2B;" d="M104.361,248.599c-6.508-0.29-13.06-1.218-19.107-3.643c-3.788-1.518-7.502-3.771-9.522-7.317
							c-1.045-1.835-1.572-3.921-1.768-6.012c-0.089-0.951-0.221-1.814,0.074-2.725c0.3-0.927,0.66-1.838,1.062-2.725
							c1.063-2.348,2.456-4.546,4.126-6.51c0.781-0.918,1.72-2.17,2.757-2.805c1.09-0.666,2.718-0.856,3.94-1.28
							c4.569-1.585,8.932-3.767,12.936-6.479c11.575,7.891,24.764,13.893,38.719,15.129c16.278,1.442,32.597-3.703,46.855-11.687
							c1.772-0.992,3.523-2.021,5.262-3.07c0.384-0.231,1.388-1.007,1.805-0.32c0.282,0.464-0.529,1.427-0.776,1.762
							c-2.073,2.816-5.094,5.289-7.703,7.594c-2.78,2.457-5.695,4.76-8.725,6.901c-11.933,8.433-31.122,18.333-45.442,21.24
							C120.809,248.285,112.565,248.965,104.361,248.599z"/>
					</g>
					<g>
						<path style="fill:#892D2B;" d="M218.54,222.404c2.926,3.04,7,4.648,10.967,6.083c0.753,0.273,1.509,0.543,2.293,0.705
							c2.693,0.558,5.537-0.186,8.217,0.43c0.404,0.093,0.852,0.26,1.004,0.646c-4.069-2.533-6.1-4.65-10.524-6.492
							c-2.212-0.921-6.707-1.834-8.987-2.573c-2.032-0.659-4.6-1.792-6.719-1.814C216.331,220.147,217.348,221.165,218.54,222.404z"
							/>
					</g>
					<g>
						<path style="fill:#892D2B;" d="M71.045,222.404c-2.926,3.04-7,4.648-10.967,6.083c-0.753,0.273-1.509,0.543-2.293,0.705
							c-2.693,0.558-5.536-0.186-8.217,0.43c-0.404,0.093-0.852,0.26-1.004,0.646c4.069-2.533,8.345-4.732,12.77-6.574
							c2.212-0.921,4.462-1.752,6.742-2.491c2.032-0.659,4.6-1.792,6.72-1.814C73.255,220.147,72.238,221.165,71.045,222.404z"/>
					</g>
				</g>
			</g>
			<g>
				<g>
					<path style="fill:#02020C;" d="M108.699,209.084c17.391,7.603,37.04,11.103,55.558,6.94
						c-5.914,4.389-13.332,6.109-20.517,7.724c12.965-1.069,26.296-2.238,37.925-8.07c2.957-1.483,5.82-3.298,7.93-5.847
						c0.561-0.678,1.092-1.505,0.958-2.375c-0.085-0.55-0.425-1.024-0.774-1.458c-1.148-1.427-2.507-2.684-4.018-3.718
						c-0.192-0.132-0.411-0.265-0.642-0.232c-0.316,0.045-0.497,0.37-0.668,0.64c-0.666,1.056-1.799,1.715-2.904,2.297
						c-9.202,4.843-19.583,7.199-29.966,7.762c-10.383,0.564-20.797-0.617-31.017-2.538c-3.039-0.571-6.098-1.218-8.905-2.516
						c-2.807-1.298-5.377-3.312-6.811-6.052c-0.087-0.166-4.182,1.532-2.059,3.854C104.327,207.178,106.653,208.19,108.699,209.084z
						"/>
				</g>
				<g>
					<path style="fill:#02020C;" d="M98.42,213.567c1.762,1.405,3.618,2.684,5.545,3.839c1.917,1.172,3.903,2.226,5.942,3.16
						c4.076,1.875,8.338,3.34,12.707,4.363c4.357,1.077,8.816,1.717,13.294,2.107c2.24,0.199,4.488,0.318,6.738,0.378
						c2.251,0.081,4.505,0.097,6.761,0.061c0.084-0.001,0.154,0.066,0.155,0.15c0.001,0.082-0.062,0.15-0.143,0.155
						c-2.256,0.141-4.517,0.229-6.78,0.252c-2.264,0.003-4.528-0.065-6.79-0.207c-4.523-0.293-9.029-0.957-13.451-2.001
						c-4.407-1.098-8.729-2.584-12.808-4.59c-2.036-1.007-4.016-2.126-5.914-3.372c-1.886-1.262-3.69-2.643-5.386-4.14
						c-0.042-0.037-0.046-0.101-0.009-0.143C98.316,213.539,98.378,213.534,98.42,213.567z"/>
				</g>
				<g>
					<g>
						<path style="fill:#02020C;" d="M105.546,200.179l5.621,0.825c0,0-1.842,4.398-4.814,3.388L105.546,200.179z"/>
					</g>
					<g>
						<path style="fill:#02020C;" d="M184.625,200.161l-5.621,0.825c0,0,2.489,3.735,4.814,3.388L184.625,200.161z"/>
					</g>
					<g>
						<path style="fill:#02020C;" d="M114.862,171.136c0.417,3.104,0.628,6.223,0.801,9.341c0.151,3.12,0.205,6.243,0.181,9.366
							c-0.024,3.123-0.054,6.247-0.243,9.369c-0.16,3.12-0.407,6.243-0.876,9.339c-0.017,0.112-0.122,0.19-0.234,0.173
							c-0.104-0.016-0.178-0.109-0.175-0.212c0.105-3.111,0.109-6.219,0.099-9.327c-0.045-3.109-0.054-6.218-0.133-9.326
							l-0.235-9.325c-0.045-3.11-0.121-6.217-0.129-9.331c-0.002-0.262,0.209-0.475,0.471-0.477
							C114.63,170.724,114.83,170.904,114.862,171.136z"/>
					</g>
					<g>
						<path style="fill:#02020C;" d="M107.042,204.564c1.332-1.548,2.681-3.006,3.96-4.537c1.291-1.522,2.487-3.107,3.741-4.709
							l0.622,0.354c-0.76,1.939-1.906,3.705-3.233,5.303c-1.338,1.589-2.882,3.019-4.668,4.091L107.042,204.564z"/>
					</g>
					<g>
						<path style="fill:#02020C;" d="M136.569,191.267c0.687,2.199,1.547,4.337,2.624,6.365c1.063,2.035,2.339,3.951,3.747,5.772
							c0.074,0.096,0.057,0.233-0.039,0.307c-0.091,0.07-0.22,0.057-0.296-0.025c-1.575-1.727-2.89-3.687-3.975-5.759
							c-1.071-2.08-1.915-4.281-2.438-6.557c-0.024-0.105,0.041-0.21,0.147-0.234C136.439,191.112,136.539,191.171,136.569,191.267z
							"/>
					</g>
					<g>
						<path style="fill:#02020C;" d="M140.598,156.211c0.804,0.479,1.658,0.863,2.53,1.139c0.873,0.274,1.772,0.441,2.667,0.436
							c0.894,0.035,1.785-0.109,2.628-0.4c0.861-0.249,1.641-0.715,2.434-1.171l0.033-0.019c0.151-0.087,0.343-0.035,0.43,0.116
							c0.081,0.14,0.042,0.316-0.085,0.41c-0.389,0.289-0.772,0.599-1.197,0.845c-0.437,0.226-0.868,0.47-1.345,0.615
							c-0.929,0.354-1.943,0.463-2.928,0.417c-0.987-0.072-1.956-0.305-2.843-0.703c-0.884-0.404-1.708-0.923-2.393-1.6
							c-0.022-0.021-0.022-0.056-0.001-0.078C140.545,156.199,140.576,156.198,140.598,156.211z"/>
					</g>
					<g>
						<path style="fill:#02020C;" d="M137,150.093c-0.535,0.963-1.004,1.961-1.399,2.986c-0.196,0.525-0.433,1.014-0.219,1.454
							c0.194,0.444,0.568,0.888,0.904,1.297c0.692,0.814,1.561,1.501,2.557,1.674c0.999,0.18,2.047-0.111,3.095-0.419
							c0.215-0.064,0.441,0.059,0.505,0.274c0.064,0.215-0.059,0.441-0.274,0.505c-0.006,0.002-0.015,0.004-0.022,0.006
							c-1.067,0.253-2.242,0.543-3.438,0.273c-1.201-0.276-2.12-1.116-2.806-2.001c-0.337-0.461-0.681-0.884-0.91-1.466
							c-0.109-0.289-0.114-0.648-0.019-0.934c0.09-0.29,0.208-0.533,0.318-0.791c0.451-1.018,0.972-2.003,1.557-2.946
							c0.025-0.041,0.079-0.053,0.12-0.028C137.009,150.002,137.022,150.053,137,150.093z"/>
					</g>
					<g>
						<path style="fill:#02020C;" d="M140.397,125.159c0.154,1.518,0.207,3.038,0.243,4.559c0.02,1.521,0.004,3.042-0.048,4.563
							c-0.084,1.52-0.146,3.042-0.325,4.557c-0.168,1.515-0.376,3.031-0.752,4.514c-0.014,0.055-0.07,0.089-0.126,0.075
							c-0.05-0.013-0.082-0.061-0.077-0.11c0.135-1.51,0.22-3.02,0.295-4.53c0.063-1.511,0.15-3.022,0.182-4.536l0.176-4.541
							c0.072-1.515,0.137-3.031,0.255-4.548c0.004-0.049,0.046-0.086,0.095-0.082C140.358,125.082,140.392,125.117,140.397,125.159z
							"/>
					</g>
					<g>
						<path style="fill:#02020C;" d="M136.384,115.679c-0.801-0.003-1.598-0.021-2.379-0.081c-0.784-0.052-1.57-0.101-2.343-0.184
							c-0.774-0.081-1.548-0.162-2.309-0.279c-0.767-0.101-1.481-0.351-2.187-0.625l0.842,0.116
							c-2.372,0.092-4.744,0.181-7.118,0.238c-1.189,0.003-2.375,0.039-3.566,0.014c-1.191-0.032-2.379-0.02-3.573-0.087l0.961-0.52
							c-0.509,0.564-1.054,1.101-1.62,1.621c-0.575,0.514-1.167,1.016-1.838,1.457c-0.199,0.131-0.466,0.076-0.597-0.123
							c-0.074-0.112-0.088-0.247-0.051-0.366c0.24-0.767,0.56-1.474,0.896-2.168c0.344-0.688,0.711-1.36,1.113-2.004
							c0.157-0.252,0.406-0.412,0.675-0.465l0.286-0.055c1.174-0.226,2.353-0.372,3.529-0.563c1.177-0.183,2.357-0.305,3.536-0.461
							c2.36-0.261,4.723-0.488,7.086-0.713c0.25-0.024,0.493,0.004,0.718,0.076l0.124,0.04c0.721,0.232,1.433,0.486,2.092,0.891
							c0.665,0.389,1.318,0.813,1.97,1.237c0.654,0.421,1.294,0.878,1.936,1.331c0.645,0.445,1.275,0.933,1.9,1.434
							c0.057,0.046,0.067,0.13,0.02,0.188C136.462,115.662,136.423,115.679,136.384,115.679z"/>
					</g>
					<g>
						<path style="fill:#02020C;" d="M145.588,75.251c-0.069-0.066-0.121-0.191-0.119-0.289l0.406,0.401
							c-0.164,0.004-0.328,0.003-0.492-0.001l0.404-0.403v0.007l-0.003,0.402l-0.4,0.001c-6.723,0.021-13.489,0.889-19.816,3.143
							c-3.134,1.184-6.148,2.685-8.884,4.606c-2.729,1.929-5.134,4.294-7.143,6.95c-4.034,5.331-6.325,11.826-7.248,18.433
							c-0.456,3.312-0.619,6.67-0.464,10.011c0.085,1.661,0.206,3.358,0.505,4.953l1.048,4.963
							c1.415,6.614,2.763,13.241,4.112,19.868l2.029,9.94l1.015,4.967c0.333,1.586,0.962,3.11,1.846,4.471
							c0.444,0.679,0.952,1.317,1.513,1.903c0.554,0.589,1.188,1.101,1.844,1.653l3.895,3.246c2.602,2.156,5.215,4.301,7.86,6.401
							c2.652,2.078,5.294,4.223,8.123,5.975c2.868,1.692,6.043,2.881,9.309,3.528l-0.078-0.007l1.559,0.001l-0.078,0.007
							c3.268-0.642,6.446-1.825,9.318-3.514c2.827-1.757,5.473-3.896,8.126-5.974c2.646-2.099,5.26-4.242,7.864-6.397l3.893-3.249
							c1.334-1.062,2.463-2.182,3.348-3.569c0.878-1.366,1.499-2.892,1.824-4.478l0.993-4.972l1.985-9.948l3.979-19.893l1.007-4.97
							c0.284-1.569,0.396-3.267,0.47-4.917c0.134-3.324-0.049-6.662-0.522-9.948c-0.467-3.288-1.313-6.512-2.496-9.593
							c-1.177-3.083-2.753-6.01-4.736-8.636c-1.993-2.612-4.327-4.983-7.017-6.909c-2.694-1.92-5.665-3.438-8.764-4.658
							c-1.579-0.53-3.143-1.125-4.778-1.489c-0.813-0.194-1.612-0.453-2.44-0.587l-2.475-0.44c-0.822-0.169-1.657-0.257-2.492-0.342
							l-2.504-0.273C149.171,75.506,147.318,75.404,145.588,75.251z M146.163,74.677c1.649-0.014,3.181-0.063,4.814,0.029
							l2.545,0.222c0.849,0.068,1.699,0.14,2.539,0.293l2.53,0.394c0.845,0.122,1.669,0.363,2.506,0.534
							c1.682,0.323,3.306,0.881,4.948,1.379c3.231,1.155,6.367,2.639,9.236,4.583c2.857,1.954,5.428,4.356,7.539,7.115
							c2.121,2.752,3.809,5.824,5.074,9.045c1.251,3.229,2.091,6.604,2.562,10.014c0.472,3.411,0.639,6.857,0.482,10.292
							c-0.09,1.726-0.203,3.413-0.528,5.172l-1.058,4.964l-4.28,19.847l-2.145,9.921l-1.074,4.963
							c-0.382,1.722-1.085,3.37-2.06,4.834c-0.49,0.73-1.047,1.415-1.662,2.042c-0.614,0.635-1.302,1.183-1.944,1.714l-3.925,3.22
							c-2.625,2.136-5.261,4.261-7.932,6.344c-2.686,2.066-5.331,4.176-8.267,5.969c-2.958,1.744-6.209,2.961-9.575,3.628
							l-0.038,0.007h-0.041l-1.559,0.001h-0.04l-0.038-0.008c-3.367-0.662-6.621-1.874-9.584-3.614
							c-2.935-1.798-5.583-3.902-8.27-5.969c-2.672-2.082-5.309-4.205-7.936-6.34l-3.923-3.222c-0.641-0.532-1.331-1.08-1.942-1.719
							c-0.613-0.631-1.168-1.318-1.654-2.051c-0.969-1.469-1.664-3.119-2.038-4.84l-1.052-4.967l-2.1-9.93
							c-1.404-6.619-2.809-13.239-4.147-19.872l-1.017-4.972c-0.311-1.732-0.415-3.422-0.493-5.136
							c-0.137-3.417,0.051-6.843,0.539-10.229c0.983-6.751,3.417-13.405,7.62-18.855c2.095-2.715,4.595-5.123,7.413-7.074
							c2.827-1.942,5.92-3.444,9.117-4.635c6.46-2.223,13.289-3.143,20.079-3.213l-0.402,0.403v-0.007v-0.412l0.405,0.009
							c0.164,0.003,0.328,0.003,0.492-0.001l0.406,0.401C146.285,74.859,146.233,74.739,146.163,74.677z"/>
					</g>
					<g>
						<path style="fill:#02020C;" d="M178.027,170.285c-0.751,3.032-0.928,6.169-1.073,9.328c-0.092,3.174-0.423,6.333-0.649,9.493
							c-0.48,6.32-0.562,12.658-0.173,19c0.007,0.113-0.079,0.211-0.192,0.218c-0.108,0.007-0.203-0.073-0.217-0.179
							c-0.406-3.16-0.705-6.34-0.83-9.531c-0.145-3.19-0.155-6.386-0.098-9.577c0.065-3.191,0.155-6.378,0.518-9.545
							c0.331-3.167,0.745-6.42,1.938-9.46c0.082-0.21,0.32-0.314,0.53-0.231c0.193,0.076,0.296,0.283,0.248,0.479L178.027,170.285z"
							/>
					</g>
					<g>
						<path style="fill:#02020C;" d="M182.916,205.007c-1.772-1.067-3.302-2.489-4.628-4.068c-1.315-1.588-2.452-3.342-3.204-5.268
							l0.622-0.354c1.246,1.589,2.434,3.163,3.713,4.675c1.268,1.522,2.604,2.972,3.92,4.514L182.916,205.007z"/>
					</g>
					<g>
						<path style="fill:#02020C;" d="M154.41,150.005c0.583,0.939,1.102,1.92,1.551,2.933c0.11,0.257,0.227,0.499,0.318,0.785
							c0.096,0.282,0.1,0.64-0.006,0.93c-0.22,0.585-0.567,1.006-0.899,1.466c-0.681,0.882-1.588,1.725-2.777,2.014
							c-1.167,0.293-2.358,0.081-3.435-0.179c-0.218-0.052-0.353-0.271-0.301-0.49c0.052-0.218,0.271-0.353,0.49-0.301
							c0.006,0.001,0.015,0.004,0.021,0.005c1.032,0.305,2.08,0.531,3.082,0.329c0.993-0.185,1.85-0.878,2.539-1.689
							c0.333-0.409,0.707-0.85,0.893-1.293c0.206-0.438-0.038-0.929-0.23-1.45c-0.395-1.02-0.861-2.014-1.394-2.973
							c-0.023-0.042-0.008-0.095,0.034-0.118C154.334,149.952,154.385,149.966,154.41,150.005z"/>
					</g>
					<g>
						<path style="fill:#02020C;" d="M155.233,191.369c-0.523,2.276-1.367,4.477-2.438,6.557c-1.085,2.072-2.399,4.033-3.975,5.759
							c-0.082,0.089-0.22,0.096-0.309,0.014c-0.085-0.077-0.094-0.207-0.026-0.296c1.408-1.821,2.684-3.736,3.747-5.772
							c1.076-2.028,1.936-4.166,2.624-6.365c0.032-0.103,0.142-0.16,0.245-0.128C155.199,191.169,155.255,191.271,155.233,191.369z"
							/>
					</g>
					<g>
						<g>
							<path style="fill:#02020C;" d="M121.7,136.215c1.037-0.268,1.98-0.313,2.964-0.351c0.974-0.026,1.944-0.006,2.909,0.058
								c1.931,0.116,3.844,0.367,5.743,0.684c0.037,0.006,0.062,0.041,0.056,0.079c-0.006,0.036-0.039,0.06-0.075,0.057
								c-1.91-0.205-3.827-0.343-5.739-0.345c-0.956-0.008-1.91,0.029-2.856,0.11c-0.93,0.084-1.917,0.212-2.731,0.475l-0.045,0.014
								c-0.214,0.069-0.443-0.048-0.511-0.262c-0.069-0.214,0.048-0.443,0.262-0.512C121.684,136.219,121.692,136.217,121.7,136.215
								z"/>
						</g>
						<g>
							<ellipse style="fill:#02020C;" cx="127.392" cy="129.09" rx="5.408" ry="7.191"/>
						</g>
						<g>
							<path style="fill:#F4EFE9;" d="M133.573,124.96c0,1.329-0.891,2.407-1.991,2.407s-1.991-1.078-1.991-2.407
								c0-1.329,0.891-2.407,1.991-2.407S133.573,123.63,133.573,124.96z"/>
						</g>
					</g>
					<g>
						<path style="fill:#02020C;" d="M154.419,115.487c0.622-0.509,1.25-1.004,1.893-1.454c0.64-0.459,1.279-0.921,1.931-1.347
							c0.651-0.429,1.301-0.858,1.966-1.249c0.658-0.41,1.372-0.66,2.093-0.89l0.121-0.039c0.237-0.076,0.488-0.098,0.721-0.077
							c2.363,0.225,4.726,0.452,7.086,0.713c1.179,0.156,2.359,0.278,3.536,0.461c1.176,0.19,2.355,0.337,3.529,0.563l0.282,0.054
							c0.292,0.056,0.533,0.233,0.679,0.466c0.403,0.644,0.769,1.316,1.113,2.004c0.336,0.694,0.656,1.401,0.896,2.168
							c0.071,0.227-0.056,0.469-0.283,0.54c-0.128,0.04-0.262,0.016-0.366-0.051c-0.671-0.441-1.263-0.943-1.838-1.457
							c-0.567-0.52-1.112-1.057-1.621-1.621l0.961,0.52c-1.193,0.067-2.382,0.056-3.573,0.087c-1.191,0.025-2.377-0.012-3.566-0.014
							c-2.374-0.056-4.746-0.146-7.118-0.238l0.842-0.116c-0.705,0.275-1.417,0.531-2.186,0.626
							c-0.762,0.114-1.538,0.19-2.314,0.267c-0.775,0.08-1.562,0.123-2.348,0.169c-0.783,0.055-1.582,0.066-2.386,0.061
							c-0.045,0-0.082-0.037-0.081-0.082C154.389,115.525,154.401,115.502,154.419,115.487z"/>
					</g>
					<g>
						<g>
							<path style="fill:#02020C;" d="M157.496,136.215c1.037-0.268,1.98-0.313,2.964-0.351c0.974-0.026,1.943-0.006,2.909,0.058
								c1.931,0.116,3.844,0.367,5.743,0.684c0.037,0.006,0.062,0.041,0.056,0.079c-0.006,0.036-0.039,0.06-0.075,0.057
								c-1.91-0.205-3.827-0.343-5.739-0.345c-0.956-0.008-1.91,0.029-2.856,0.11c-0.93,0.084-1.917,0.212-2.731,0.475l-0.045,0.014
								c-0.214,0.069-0.443-0.048-0.512-0.262c-0.069-0.214,0.048-0.443,0.262-0.512
								C157.48,136.219,157.488,136.217,157.496,136.215z"/>
						</g>
						<g>
							<ellipse style="fill:#02020C;" cx="163.545" cy="129.09" rx="5.408" ry="7.191"/>
						</g>
						<g>
							<path style="fill:#F4EFE9;" d="M169.102,124.96c0,1.329-0.891,2.407-1.991,2.407c-1.1,0-1.991-1.078-1.991-2.407
								c0-1.329,0.891-2.407,1.991-2.407C168.211,122.552,169.102,123.63,169.102,124.96z"/>
						</g>
					</g>
					<g>
						<g>
							<path style="fill:#02020C;" d="M195.613,127.025c0.374-0.748,0.669-1.593,0.429-2.363c-0.199-0.792-1.025-1.14-1.81-1.201
								c-0.796-0.063-1.6,0.157-2.316,0.528c-0.723,0.373-1.377,0.888-2.025,1.431c-0.172,0.144-0.428,0.122-0.572-0.05
								c-0.144-0.172-0.122-0.428,0.05-0.572c0.006-0.005,0.014-0.011,0.02-0.016c0.694-0.511,1.423-1.021,2.247-1.383
								c0.82-0.362,1.743-0.559,2.653-0.43c0.453,0.068,0.896,0.206,1.291,0.464c0.404,0.253,0.692,0.694,0.789,1.143
								c0.218,0.926-0.179,1.804-0.597,2.533c-0.024,0.043-0.079,0.059-0.122,0.035C195.608,127.12,195.592,127.067,195.613,127.025
								z"/>
						</g>
						<g>
							<path style="fill:#02020C;" d="M188.49,132.016c0.972,0.734,1.6,1.886,1.74,3.103c0.161,1.235-0.311,2.473-0.961,3.464
								c-0.643,1.013-1.423,1.895-2.011,2.86c-0.586,0.962-0.991,2.03-1.189,3.131c-0.04,0.221-0.251,0.368-0.472,0.328
								c-0.221-0.04-0.368-0.251-0.328-0.472c0.001-0.004,0.002-0.011,0.003-0.015c0.259-1.191,0.74-2.328,1.407-3.339
								c0.67-1.008,1.481-1.859,2.123-2.799c0.65-0.926,1.099-1.998,0.998-3.116c-0.085-1.106-0.623-2.195-1.498-2.905
								c-0.065-0.053-0.076-0.149-0.023-0.214C188.331,131.978,188.425,131.967,188.49,132.016z"/>
						</g>
						<g>
							<path style="fill:#02020C;" d="M188.428,124.088c1.278-1.577,2.689-3.352,4.818-4.225c0.54-0.217,1.118-0.348,1.723-0.349
								c0.598-0.002,1.262,0.15,1.793,0.571c0.543,0.429,0.804,1.011,0.998,1.492c0.205,0.499,0.385,1.008,0.518,1.527
								c0.548,2.083,0.515,4.232,0.279,6.294c-0.239,2.073-0.676,4.084-1.118,6.091c-0.441,2.009-0.82,4.026-1.303,6.031
								c-0.5,1.998-1.109,4.017-2.163,5.851c-0.269,0.453-0.553,0.9-0.877,1.319c-0.335,0.403-0.697,0.776-1.045,1.165
								c-0.706,0.773-1.377,1.541-2.249,2.2c-0.859,0.64-2.008,1.111-3.203,0.826c-0.614-0.132-1.102-0.553-1.488-0.77
								c-0.367-0.232-0.803-0.229-0.821-0.087l-0.625-1.266c0.951-0.311,1.616,0.159,2.045,0.519
								c0.435,0.383,0.72,0.695,1.115,0.828c0.818,0.283,1.811-0.025,2.557-0.615c0.768-0.582,1.458-1.368,2.127-2.112
								c0.333-0.377,0.686-0.743,1.004-1.129c0.301-0.395,0.566-0.817,0.818-1.246c1.946-3.515,2.427-7.702,3.307-11.675
								c0.405-2.006,0.803-4.018,0.998-6.027c0.195-2.004,0.178-4.034-0.357-5.923c-0.13-0.471-0.298-0.931-0.499-1.373
								c-0.196-0.457-0.414-0.832-0.698-1.031c-0.576-0.434-1.567-0.345-2.364,0.012c-1.71,0.754-2.958,2.351-4.174,3.97
								L188.428,124.088z"/>
						</g>
					</g>
					<g>
						<g>
							<path style="fill:#02020C;" d="M95.334,127.109c-0.418-0.729-0.815-1.607-0.597-2.533c0.096-0.449,0.385-0.89,0.789-1.143
								c0.396-0.258,0.838-0.396,1.291-0.464c0.91-0.129,1.833,0.068,2.653,0.43c0.824,0.362,1.554,0.872,2.247,1.383
								c0.181,0.133,0.219,0.387,0.086,0.568c-0.133,0.181-0.387,0.219-0.568,0.086c-0.007-0.005-0.014-0.011-0.02-0.016
								c-0.648-0.543-1.302-1.058-2.025-1.431c-0.716-0.371-1.52-0.591-2.316-0.528c-0.785,0.06-1.611,0.409-1.81,1.201
								c-0.239,0.77,0.056,1.615,0.429,2.363c0.022,0.044,0.004,0.098-0.04,0.12C95.41,127.166,95.358,127.149,95.334,127.109z"/>
						</g>
						<g>
							<path style="fill:#02020C;" d="M102.803,132.255c-0.875,0.71-1.413,1.799-1.498,2.905c-0.101,1.118,0.348,2.19,0.998,3.116
								c0.643,0.94,1.454,1.791,2.123,2.799c0.667,1.011,1.148,2.148,1.407,3.339c0.048,0.219-0.091,0.436-0.31,0.484
								c-0.219,0.048-0.436-0.091-0.484-0.31c-0.001-0.004-0.002-0.011-0.003-0.015c-0.198-1.101-0.603-2.169-1.189-3.131
								c-0.588-0.965-1.368-1.846-2.012-2.86c-0.649-0.991-1.122-2.229-0.961-3.464c0.14-1.217,0.768-2.369,1.74-3.103
								c0.067-0.051,0.162-0.037,0.213,0.03C102.878,132.111,102.866,132.204,102.803,132.255z"/>
						</g>
						<g>
							<path style="fill:#02020C;" d="M101.563,124.955c-1.216-1.619-2.464-3.216-4.174-3.97c-0.797-0.357-1.788-0.446-2.364-0.012
								c-0.284,0.199-0.502,0.575-0.698,1.031c-0.201,0.442-0.369,0.901-0.499,1.373c-0.535,1.889-0.552,3.919-0.357,5.923
								c0.195,2.009,0.593,4.021,0.998,6.027c0.881,3.973,1.362,8.16,3.307,11.675c0.252,0.429,0.517,0.852,0.818,1.246
								c0.318,0.386,0.671,0.752,1.004,1.129c0.669,0.744,1.359,1.53,2.127,2.112c0.746,0.59,1.738,0.898,2.556,0.615
								c0.396-0.134,0.68-0.445,1.115-0.828c0.428-0.36,1.094-0.829,2.045-0.519l-0.625,1.266c-0.018-0.142-0.454-0.145-0.821,0.087
								c-0.386,0.218-0.874,0.638-1.488,0.77c-1.194,0.285-2.343-0.186-3.203-0.826c-0.872-0.659-1.543-1.427-2.249-2.2
								c-0.348-0.389-0.71-0.762-1.045-1.165c-0.324-0.42-0.608-0.866-0.877-1.319c-1.054-1.834-1.663-3.853-2.163-5.851
								c-0.483-2.004-0.862-4.021-1.303-6.031c-0.442-2.007-0.879-4.017-1.118-6.091c-0.236-2.063-0.269-4.212,0.279-6.294
								c0.133-0.52,0.313-1.028,0.518-1.527c0.195-0.48,0.455-1.063,0.998-1.492c0.531-0.421,1.195-0.572,1.793-0.571
								c0.605,0.001,1.184,0.132,1.723,0.349c2.129,0.873,3.539,2.648,4.818,4.225L101.563,124.955z"/>
						</g>
					</g>
					<path style="fill:#02020C;" d="M193.155,102.585c0.091-2.516-0.895-5.53-1.819-7.869c-0.699-1.77-1.613-3.443-2.682-5.009
						c-1.961-5.936-6.667-10.764-11.483-14.62c-4.129-3.305-8.538-6.268-13.342-8.257c-3.815-1.579-7.84-2.526-11.898-3.054
						c-10.719-1.393-21.908,0.217-31.473,5.602c-2.701,1.521-5.252,3.349-7.597,5.444c-4.14,3.698-7.655,8.237-10.144,13.377
						c-1.106,2.283-1.809,4.741-2.886,7.029c-0.383,0.814-0.647,1.788-0.639,2.633c-0.432,1.53-0.73,3.111-0.679,4.535
						c0.118,3.252,0.907,6.486,2.269,9.442c-0.015,0.123-0.024,0.194-0.024,0.194l1.189,12.005l3.447,13.907
						c0,0,0.951,0.238,1.07-1.783c0,0,1.545-20.801-0.356-25.913l5.468-6.062l-1.182-1.435h-0.01
						c-0.178-0.271-0.348-0.515-0.451-0.704c1.844-1.432,3.688-2.864,5.532-4.296c0.407-0.316,0.825-0.638,1.313-0.804
						c1.24-0.422,2.945-0.241,4.219-0.106c1.893,0.201,3.792,0.346,5.692,0.452c3.753,0.21,7.513,0.269,11.271,0.305
						c5.185,0.051,10.371,0.061,15.557,0.029c5.064-0.03,10.245,0.167,15.286-0.225c1.381-0.107,2.759-0.245,4.139-0.36
						c0.653-0.061,1.328-0.12,1.949,0.091c0.488,0.166,0.906,0.488,1.313,0.804c1.844,1.432,3.688,2.864,5.531,4.296
						c-0.078,0.144-0.197,0.321-0.326,0.516h-0.304l-1.182,1.435l5.468,6.062c-1.902,5.111-0.357,25.913-0.357,25.913
						c0.119,2.021,1.07,1.783,1.07,1.783l3.447-14.858l1.146-10.661c0.001,0.003,0.003,0.005,0.004,0.008
						C192.182,109.371,193.032,105.986,193.155,102.585z"/>
					<g>
						<path style="fill:#02020C;" d="M144.113,224.776c-12.016-0.595-29.365-3.531-43.981-14.153
							c-0.336-0.244-0.558-0.411-0.67-0.472c-1.823-0.994-0.386-4.34-0.079-5.001l0.073-0.158l6.105-4.857l1.611,3.515
							c12.852,8.239,33.831,8.968,37.922,9.03c4.069-0.062,25.049-0.791,37.9-9.03l1.611-3.515l6.105,4.857l0.073,0.158
							c0.307,0.661,1.745,4.007-0.078,5.001c-0.112,0.062-0.334,0.228-0.67,0.472c-14.616,10.621-31.965,13.558-43.945,14.152
							L144.113,224.776z M100.653,205.928c-0.57,1.301-0.815,2.745-0.484,2.926c0.168,0.091,0.404,0.263,0.832,0.574
							c14.321,10.407,31.37,13.288,43.148,13.871l1.906-0.001c11.742-0.583,28.79-3.463,43.112-13.87
							c0.429-0.311,0.664-0.482,0.832-0.574c0.331-0.181,0.084-1.625-0.485-2.926l-4.351-3.461l-1.004,2.19l-0.18,0.116
							c-13.174,8.569-34.702,9.321-38.884,9.385c-4.204-0.064-25.732-0.816-38.906-9.385l-0.18-0.117l-1.003-2.189L100.653,205.928z
							"/>
					</g>
					<g>
						<g>
							<g>
								<g>
									<path style="fill:#02020C;" d="M43.993,248.993c0.56-2.748,1.119-5.485,1.871-8.148c0.863-2.981,1.94-5.896,3.561-8.486
										c0.811-1.289,1.704-2.541,2.774-3.514c1.063-0.97,2.402-1.666,3.813-2.302c2.836-1.28,5.781-2.337,8.766-3.289
										c5.977-1.893,12.114-3.411,18.125-5.458c1.502-0.511,2.995-1.056,4.471-1.648c0.726-0.291,1.487-0.613,2.201-0.972
										l2.123-1.07c2.814-1.462,5.585-2.907,8.372-4.489l-0.453-0.75c-2.74,1.456-5.603,2.853-8.425,4.22l-2.13,1.001
										c-0.704,0.333-1.408,0.598-2.149,0.884c-1.46,0.559-2.94,1.072-4.431,1.553c-5.968,1.924-12.121,3.328-18.176,5.229
										c-3.028,0.946-6.037,2.003-8.96,3.3c-1.459,0.648-2.972,1.403-4.259,2.557c-1.283,1.144-2.203,2.515-3.059,3.893
										c-1.695,2.789-2.83,5.857-3.58,8.964c-0.708,2.823-1.148,5.678-1.52,8.526H43.993z"/>
								</g>
							</g>
						</g>
						<g>
							<g>
								<g>
									<path style="fill:#02020C;" d="M201.588,215.176c0.714,0.358,1.475,0.68,2.201,0.972c1.476,0.592,2.969,1.137,4.471,1.648
										c6.01,2.047,12.148,3.565,18.125,5.458c2.985,0.953,5.93,2.01,8.766,3.289c1.411,0.635,2.75,1.332,3.813,2.302
										c1.07,0.973,1.963,2.226,2.774,3.514c1.621,2.59,2.698,5.505,3.561,8.486c0.752,2.664,1.311,5.4,1.871,8.148h1.066
										c-0.372-2.848-0.813-5.703-1.52-8.526c-0.75-3.106-1.885-6.174-3.58-8.964c-0.855-1.378-1.776-2.749-3.059-3.893
										c-1.286-1.154-2.8-1.909-4.259-2.557c-2.923-1.297-5.932-2.354-8.96-3.3c-6.055-1.901-12.208-3.304-18.176-5.229
										c-1.491-0.481-2.971-0.994-4.431-1.553c-0.741-0.286-1.444-0.552-2.149-0.884l-2.13-1.001
										c-2.823-1.367-5.685-2.765-8.425-4.22l-0.453,0.75c2.787,1.582,5.558,3.027,8.372,4.489L201.588,215.176z"/>
								</g>
							</g>
						</g>
					</g>
					<g>
						<g>
							<path style="fill:#02020C;" d="M105.517,213.839c-0.014,0-0.029-0.001-0.044-0.003c-0.175-0.024-0.298-0.186-0.274-0.361
								c0.404-2.937,1.238-5.791,2.476-8.483c0.075-0.162,0.27-0.229,0.425-0.157c0.162,0.074,0.231,0.264,0.158,0.425
								c-1.213,2.635-2.028,5.428-2.424,8.302C105.812,213.723,105.675,213.839,105.517,213.839z"/>
						</g>
						<g>
							<path style="fill:#02020C;" d="M110.65,216.687c-0.007,0-0.014,0-0.021-0.001c-0.177-0.012-0.31-0.165-0.298-0.341
								c0.209-3.077,0.932-6.072,2.149-8.903c0.069-0.162,0.262-0.238,0.42-0.168c0.163,0.07,0.238,0.258,0.168,0.421
								c-1.188,2.764-1.894,5.689-2.098,8.694C110.958,216.557,110.817,216.687,110.65,216.687z"/>
						</g>
						<g>
							<path style="fill:#02020C;" d="M116.858,218.912c-0.011,0-0.023-0.001-0.034-0.002c-0.176-0.019-0.303-0.177-0.284-0.353
								c0.318-2.932,0.976-5.831,1.954-8.617c0.059-0.167,0.244-0.254,0.408-0.196c0.167,0.059,0.255,0.242,0.197,0.409
								c-0.962,2.74-1.609,5.591-1.922,8.474C117.158,218.79,117.019,218.912,116.858,218.912z"/>
						</g>
						<g>
							<path style="fill:#02020C;" d="M123.673,221.502c-0.008,0-0.017-0.001-0.025-0.001c-0.177-0.014-0.308-0.168-0.294-0.345
								c0.27-3.392,1.06-6.711,2.347-9.864c0.068-0.165,0.254-0.242,0.418-0.175c0.163,0.067,0.242,0.254,0.175,0.417
								c-1.263,3.092-2.037,6.347-2.303,9.673C123.979,221.374,123.839,221.502,123.673,221.502z"/>
						</g>
						<g>
							<path style="fill:#02020C;" d="M130.783,222.934c-0.155,0-0.29-0.112-0.316-0.269c-0.132-0.811-0.045-1.625,0.065-2.458
								c0.337-2.564,0.806-5.139,1.395-7.654c0.04-0.173,0.208-0.284,0.385-0.239c0.172,0.04,0.279,0.212,0.238,0.385
								c-0.584,2.495-1.049,5.049-1.384,7.592c-0.102,0.783-0.185,1.547-0.067,2.272c0.028,0.175-0.09,0.339-0.265,0.368
								C130.817,222.932,130.8,222.934,130.783,222.934z"/>
						</g>
						<g>
							<path style="fill:#02020C;" d="M137.958,223.998c-0.172,0-0.314-0.136-0.32-0.309c-0.101-2.811,0.005-5.657,0.319-8.46
								c0.082-0.729,0.189-1.432,0.604-2.019c0.102-0.145,0.303-0.18,0.446-0.077c0.145,0.102,0.179,0.301,0.077,0.446
								c-0.327,0.463-0.418,1.079-0.491,1.721c-0.309,2.771-0.416,5.585-0.315,8.365c0.007,0.177-0.132,0.325-0.309,0.332
								C137.965,223.998,137.962,223.998,137.958,223.998z"/>
						</g>
					</g>
					<g>
						<g>
							<path style="fill:#02020C;" d="M185.537,213.212c-0.158,0-0.295-0.116-0.317-0.277c-0.394-2.861-1.219-5.057-2.424-7.675
								c-0.073-0.161-0.004-0.351,0.158-0.425c0.155-0.072,0.35-0.005,0.425,0.157c1.228,2.671,2.072,4.916,2.476,7.856
								c0.024,0.175-0.098,0.337-0.274,0.361C185.566,213.211,185.551,213.212,185.537,213.212z"/>
						</g>
						<g>
							<path style="fill:#02020C;" d="M180.404,215.975c-0.167,0-0.308-0.13-0.319-0.299c-0.209-3.064-0.957-5.326-2.098-7.982
								c-0.071-0.162,0.005-0.351,0.168-0.421c0.16-0.069,0.351,0.005,0.42,0.168c1.167,2.718,1.933,5.036,2.148,8.191
								c0.012,0.177-0.121,0.329-0.298,0.341C180.418,215.974,180.411,215.975,180.404,215.975z"/>
						</g>
						<g>
							<path style="fill:#02020C;" d="M174.196,218.912c-0.161,0-0.301-0.122-0.318-0.286c-0.314-2.883-0.96-5.734-1.922-8.474
								c-0.059-0.167,0.03-0.35,0.197-0.409c0.164-0.057,0.35,0.03,0.408,0.196c0.978,2.786,1.636,5.686,1.954,8.617
								c0.019,0.176-0.108,0.334-0.284,0.353C174.219,218.911,174.207,218.912,174.196,218.912z"/>
						</g>
						<g>
							<path style="fill:#02020C;" d="M167.381,221.057c-0.166,0-0.306-0.128-0.319-0.295c-0.247-3.088-0.956-5.933-2.303-9.228
								c-0.067-0.164,0.012-0.351,0.175-0.417c0.162-0.066,0.351,0.011,0.418,0.175c1.371,3.358,2.096,6.263,2.347,9.419
								c0.014,0.176-0.117,0.331-0.294,0.345C167.398,221.056,167.389,221.057,167.381,221.057z"/>
						</g>
						<g>
							<path style="fill:#02020C;" d="M160.271,222.934c-0.017,0-0.034-0.001-0.052-0.004c-0.174-0.029-0.293-0.193-0.264-0.368
								c0.119-0.723,0.04-1.456-0.067-2.271c-0.336-2.549-0.801-5.103-1.383-7.592c-0.041-0.172,0.067-0.344,0.238-0.385
								c0.174-0.045,0.345,0.066,0.385,0.239c0.587,2.509,1.057,5.084,1.394,7.654c0.109,0.835,0.197,1.65,0.065,2.459
								C160.561,222.822,160.426,222.934,160.271,222.934z"/>
						</g>
						<g>
							<path style="fill:#02020C;" d="M153.096,223.998c-0.004,0-0.008-0.001-0.011-0.001c-0.177-0.007-0.315-0.155-0.309-0.332
								c0.1-2.786-0.006-5.601-0.315-8.365c-0.072-0.643-0.164-1.258-0.491-1.721c-0.102-0.145-0.068-0.345,0.077-0.446
								c0.143-0.102,0.344-0.068,0.446,0.077c0.415,0.587,0.522,1.29,0.604,2.019c0.314,2.796,0.42,5.643,0.319,8.46
								C153.409,223.863,153.268,223.998,153.096,223.998z"/>
						</g>
					</g>
					<g>
						<path style="fill:#02020C;" d="M145.608,223.999c-0.177,0-0.32-0.144-0.32-0.321v-10.163c0-0.177,0.143-0.32,0.32-0.32
							s0.32,0.144,0.32,0.32v10.163C145.928,223.855,145.785,223.999,145.608,223.999z"/>
					</g>
					<g>
						<path style="fill:#02020C;" d="M227.789,248.993c1.711-7.816,5.267-15.162,10.389-21.321c0.113-0.136,0.095-0.338-0.041-0.451
							c-0.137-0.114-0.339-0.095-0.451,0.041c-5.218,6.274-8.831,13.763-10.553,21.73H227.789z"/>
					</g>
					<g>
						<path style="fill:#02020C;" d="M62.535,248.993h0.656c-1.721-7.967-5.334-15.456-10.553-21.73
							c-0.113-0.136-0.314-0.155-0.451-0.041c-0.135,0.113-0.154,0.315-0.041,0.451C57.269,233.831,60.825,241.177,62.535,248.993z"
							/>
					</g>
					<g>
						<path style="fill:#02020C;" d="M142.537,169.051l6.594-1.145l-0.412,0.193l2.563-1.843c0.095-0.068,0.228-0.047,0.296,0.048
							c0.055,0.077,0.051,0.179-0.003,0.251l-1.895,2.525c-0.091,0.121-0.228,0.187-0.368,0.192l-0.044,0.001l-6.689,0.193
							c-0.115,0.003-0.212-0.088-0.215-0.203C142.361,169.157,142.436,169.068,142.537,169.051z"/>
					</g>
				</g>
			</g>
		</g>
	</g>
</g>
</svg>
